<svg width="156" height="22" viewBox="0 0 156 22" fill="none" xmlns="http://www.w3.org/2000/svg">
<path d="M0.241 21V2.1H8.422C10.114 2.1 11.572 2.379 12.796 2.937C14.02 3.477 14.965 4.26 15.631 5.286C16.297 6.312 16.63 7.536 16.63 8.958C16.63 10.362 16.297 11.577 15.631 12.603C14.965 13.611 14.02 14.385 12.796 14.925C11.572 15.465 10.114 15.735 8.422 15.735H2.671L4.615 13.818V21H0.241ZM12.256 21L7.531 14.142H12.202L16.981 21H12.256ZM4.615 14.304L2.671 12.252H8.179C9.529 12.252 10.537 11.964 11.203 11.388C11.869 10.794 12.202 9.984 12.202 8.958C12.202 7.914 11.869 7.104 11.203 6.528C10.537 5.952 9.529 5.664 8.179 5.664H2.671L4.615 3.585V14.304ZM27.0075 21.216C25.3515 21.216 23.8935 20.892 22.6335 20.244C21.3915 19.596 20.4285 18.714 19.7445 17.598C19.0605 16.464 18.7185 15.177 18.7185 13.737C18.7185 12.279 19.0515 10.992 19.7175 9.876C20.4015 8.742 21.3285 7.86 22.4985 7.23C23.6685 6.582 24.9915 6.258 26.4675 6.258C27.8895 6.258 29.1675 6.564 30.3015 7.176C31.4535 7.77 32.3625 8.634 33.0285 9.768C33.6945 10.884 34.0275 12.225 34.0275 13.791C34.0275 13.953 34.0185 14.142 34.0005 14.358C33.9825 14.556 33.9645 14.745 33.9465 14.925H22.1475V12.468H31.7325L30.1125 13.197C30.1125 12.441 29.9595 11.784 29.6535 11.226C29.3475 10.668 28.9245 10.236 28.3845 9.93C27.8445 9.606 27.2145 9.444 26.4945 9.444C25.7745 9.444 25.1355 9.606 24.5775 9.93C24.0375 10.236 23.6145 10.677 23.3085 11.253C23.0025 11.811 22.8495 12.477 22.8495 13.251V13.899C22.8495 14.691 23.0205 15.393 23.3625 16.005C23.7225 16.599 24.2175 17.058 24.8475 17.382C25.4955 17.688 26.2515 17.841 27.1155 17.841C27.8895 17.841 28.5645 17.724 29.1405 17.49C29.7345 17.256 30.2745 16.905 30.7605 16.437L33.0015 18.867C32.3355 19.623 31.4985 20.208 30.4905 20.622C29.4825 21.018 28.3215 21.216 27.0075 21.216ZM45.3462 21V18.165L45.0762 17.544V12.468C45.0762 11.568 44.7972 10.866 44.2392 10.362C43.6992 9.858 42.8622 9.606 41.7282 9.606C40.9542 9.606 40.1892 9.732 39.4332 9.984C38.6952 10.218 38.0652 10.542 37.5432 10.956L36.0312 8.013C36.8232 7.455 37.7772 7.023 38.8932 6.717C40.0092 6.411 41.1432 6.258 42.2952 6.258C44.5092 6.258 46.2282 6.78 47.4522 7.824C48.6762 8.868 49.2882 10.497 49.2882 12.711V21H45.3462ZM40.9182 21.216C39.7842 21.216 38.8122 21.027 38.0022 20.649C37.1922 20.253 36.5712 19.722 36.1392 19.056C35.7072 18.39 35.4912 17.643 35.4912 16.815C35.4912 15.951 35.6982 15.195 36.1122 14.547C36.5442 13.899 37.2192 13.395 38.1372 13.035C39.0552 12.657 40.2522 12.468 41.7282 12.468H45.5892V14.925H42.1872C41.1972 14.925 40.5132 15.087 40.1352 15.411C39.7752 15.735 39.5952 16.14 39.5952 16.626C39.5952 17.166 39.8022 17.598 40.2162 17.922C40.6482 18.228 41.2332 18.381 41.9712 18.381C42.6732 18.381 43.3032 18.219 43.8612 17.895C44.4192 17.553 44.8242 17.058 45.0762 16.41L45.7242 18.354C45.4182 19.29 44.8602 20.001 44.0502 20.487C43.2402 20.973 42.1962 21.216 40.9182 21.216ZM53.1003 21V0.965999H57.3123V21H53.1003Z" fill="#FFC528"/>
<path d="M73.1878 9.714H82.2868V13.116H73.1878V9.714ZM73.5118 17.49H83.7988V21H69.1648V2.1H83.4478V5.61H73.5118V17.49ZM91.79 21.216C90.548 21.216 89.351 21.072 88.199 20.784C87.065 20.478 86.165 20.1 85.499 19.65L86.903 16.626C87.569 17.04 88.352 17.382 89.252 17.652C90.17 17.904 91.07 18.03 91.952 18.03C92.924 18.03 93.608 17.913 94.004 17.679C94.418 17.445 94.625 17.121 94.625 16.707C94.625 16.365 94.463 16.113 94.139 15.951C93.833 15.771 93.419 15.636 92.897 15.546C92.375 15.456 91.799 15.366 91.169 15.276C90.557 15.186 89.936 15.069 89.306 14.925C88.676 14.763 88.1 14.529 87.578 14.223C87.056 13.917 86.633 13.503 86.309 12.981C86.003 12.459 85.85 11.784 85.85 10.956C85.85 10.038 86.111 9.228 86.633 8.526C87.173 7.824 87.947 7.275 88.955 6.879C89.963 6.465 91.169 6.258 92.573 6.258C93.563 6.258 94.571 6.366 95.597 6.582C96.623 6.798 97.478 7.113 98.162 7.527L96.758 10.524C96.056 10.11 95.345 9.831 94.625 9.687C93.923 9.525 93.239 9.444 92.573 9.444C91.637 9.444 90.953 9.57 90.521 9.822C90.089 10.074 89.873 10.398 89.873 10.794C89.873 11.154 90.026 11.424 90.332 11.604C90.656 11.784 91.079 11.928 91.601 12.036C92.123 12.144 92.69 12.243 93.302 12.333C93.932 12.405 94.562 12.522 95.192 12.684C95.822 12.846 96.389 13.08 96.893 13.386C97.415 13.674 97.838 14.079 98.162 14.601C98.486 15.105 98.648 15.771 98.648 16.599C98.648 17.499 98.378 18.3 97.838 19.002C97.298 19.686 96.515 20.226 95.489 20.622C94.481 21.018 93.248 21.216 91.79 21.216ZM107.187 21.216C105.477 21.216 104.145 20.784 103.191 19.92C102.237 19.038 101.76 17.733 101.76 16.005V3.261H105.972V15.951C105.972 16.563 106.134 17.04 106.458 17.382C106.782 17.706 107.223 17.868 107.781 17.868C108.447 17.868 109.014 17.688 109.482 17.328L110.616 20.298C110.184 20.604 109.662 20.838 109.05 21C108.456 21.144 107.835 21.216 107.187 21.216ZM99.5187 10.038V6.798H109.59V10.038H99.5187ZM121.89 21V18.165L121.62 17.544V12.468C121.62 11.568 121.341 10.866 120.783 10.362C120.243 9.858 119.406 9.606 118.272 9.606C117.498 9.606 116.733 9.732 115.977 9.984C115.239 10.218 114.609 10.542 114.087 10.956L112.575 8.013C113.367 7.455 114.321 7.023 115.437 6.717C116.553 6.411 117.687 6.258 118.839 6.258C121.053 6.258 122.772 6.78 123.996 7.824C125.22 8.868 125.832 10.497 125.832 12.711V21H121.89ZM117.462 21.216C116.328 21.216 115.356 21.027 114.546 20.649C113.736 20.253 113.115 19.722 112.683 19.056C112.251 18.39 112.035 17.643 112.035 16.815C112.035 15.951 112.242 15.195 112.656 14.547C113.088 13.899 113.763 13.395 114.681 13.035C115.599 12.657 116.796 12.468 118.272 12.468H122.133V14.925H118.731C117.741 14.925 117.057 15.087 116.679 15.411C116.319 15.735 116.139 16.14 116.139 16.626C116.139 17.166 116.346 17.598 116.76 17.922C117.192 18.228 117.777 18.381 118.515 18.381C119.217 18.381 119.847 18.219 120.405 17.895C120.963 17.553 121.368 17.058 121.62 16.41L122.268 18.354C121.962 19.29 121.404 20.001 120.594 20.487C119.784 20.973 118.74 21.216 117.462 21.216ZM135.584 21.216C133.874 21.216 132.542 20.784 131.588 19.92C130.634 19.038 130.157 17.733 130.157 16.005V3.261H134.369V15.951C134.369 16.563 134.531 17.04 134.855 17.382C135.179 17.706 135.62 17.868 136.178 17.868C136.844 17.868 137.411 17.688 137.879 17.328L139.013 20.298C138.581 20.604 138.059 20.838 137.447 21C136.853 21.144 136.232 21.216 135.584 21.216ZM127.916 10.038V6.798H137.987V10.038H127.916ZM148.138 21.216C146.482 21.216 145.024 20.892 143.764 20.244C142.522 19.596 141.559 18.714 140.875 17.598C140.191 16.464 139.849 15.177 139.849 13.737C139.849 12.279 140.182 10.992 140.848 9.876C141.532 8.742 142.459 7.86 143.629 7.23C144.799 6.582 146.122 6.258 147.598 6.258C149.02 6.258 150.298 6.564 151.432 7.176C152.584 7.77 153.493 8.634 154.159 9.768C154.825 10.884 155.158 12.225 155.158 13.791C155.158 13.953 155.149 14.142 155.131 14.358C155.113 14.556 155.095 14.745 155.077 14.925H143.278V12.468H152.863L151.243 13.197C151.243 12.441 151.09 11.784 150.784 11.226C150.478 10.668 150.055 10.236 149.515 9.93C148.975 9.606 148.345 9.444 147.625 9.444C146.905 9.444 146.266 9.606 145.708 9.93C145.168 10.236 144.745 10.677 144.439 11.253C144.133 11.811 143.98 12.477 143.98 13.251V13.899C143.98 14.691 144.151 15.393 144.493 16.005C144.853 16.599 145.348 17.058 145.978 17.382C146.626 17.688 147.382 17.841 148.246 17.841C149.02 17.841 149.695 17.724 150.271 17.49C150.865 17.256 151.405 16.905 151.891 16.437L154.132 18.867C153.466 19.623 152.629 20.208 151.621 20.622C150.613 21.018 149.452 21.216 148.138 21.216Z" fill="#178A23"/>
</svg>
